<svg width="24" height="24" viewBox="0 0 24 24" fill="none" xmlns="http://www.w3.org/2000/svg">
<path d="M17.4711 5.25808C16.9302 5.37258 16.1092 5.68044 14.975 6.44964L5.59821 18.1818L5.59667 18.1791L5.59079 18.1689C5.58564 18.16 5.57801 18.1472 5.56792 18.131C5.54775 18.0985 5.51772 18.0522 5.47794 17.9966C5.39842 17.8854 5.2797 17.7363 5.12262 17.5845C4.8088 17.2813 4.33881 16.9642 3.72048 16.9211L3.72048 16.921L3.71764 16.921L3.717 16.971L3.7176 16.921H3.71753L3.7173 16.921L3.71655 16.921L3.7138 16.921L3.70368 16.921C3.69498 16.9211 3.68249 16.9213 3.66706 16.9218C3.63625 16.9229 3.59347 16.9253 3.54554 16.9306C3.45167 16.9409 3.33052 16.963 3.24265 17.013C3.19818 17.0383 3.15753 17.0734 3.1361 17.1223C3.11398 17.1728 3.11576 17.23 3.1414 17.2915C3.19061 17.4094 3.33259 17.555 3.60476 17.7413L3.60439 17.7418L3.61171 17.7452L3.61173 17.7452L3.61177 17.7453L3.61193 17.7453L3.61322 17.746L3.61908 17.7489C3.62442 17.7517 3.63259 17.756 3.64333 17.7621C3.6648 17.7743 3.69657 17.7934 3.73662 17.8207C3.81671 17.8754 3.92997 17.963 4.06039 18.0935C4.32087 18.3541 4.65046 18.7865 4.9208 19.4716L4.92082 19.4717L4.92259 19.4772C4.92414 19.4819 4.92645 19.4888 4.92957 19.4977C4.93582 19.5154 4.94532 19.5409 4.95855 19.573C4.98502 19.6371 5.02646 19.7273 5.08671 19.8331C5.20715 20.0446 5.40309 20.3188 5.70529 20.57C6.30447 21.0679 7.31382 21.469 8.96032 21.1267C8.9631 21.6566 8.96722 22.1145 8.97039 22.4665C8.97302 22.759 8.975 22.9783 8.975 23.105C8.975 23.2541 8.92347 23.4118 8.80632 23.5185C8.69112 23.6236 8.50432 23.6867 8.21753 23.6335C3.47205 22.0541 0.05 17.5766 0.05 12.297C0.05 5.6976 5.39762 0.346997 12 0.346997C18.5994 0.346997 23.95 5.69761 23.95 12.297C23.95 17.5687 20.5309 22.0492 15.7514 23.6175C15.4566 23.6743 15.2688 23.6115 15.1546 23.5072C15.0383 23.401 14.989 23.2436 14.989 23.096C14.989 22.9674 14.9906 22.7409 14.9928 22.4372C14.9939 22.2808 14.9952 22.1039 14.9965 21.9093C15.0002 21.3373 15.004 20.6131 15.004 19.81C15.004 18.7468 14.6584 18.0204 14.2584 17.6273C15.562 17.4736 16.8967 17.1392 17.9149 16.2865C18.9639 15.4078 19.669 13.9859 19.669 11.67C19.669 10.359 19.2074 9.28468 18.4468 8.43933C18.581 8.08674 18.9479 6.87638 18.3156 5.25582L18.3069 5.23364L18.2843 5.22638L18.269 5.274C18.2843 5.22638 18.2842 5.22637 18.2841 5.22635L18.284 5.22631L18.2837 5.2262L18.2827 5.22591L18.2798 5.22504L18.2693 5.22225C18.2603 5.22001 18.2473 5.21707 18.2303 5.21399C18.1961 5.20782 18.1458 5.20106 18.0786 5.19799C17.9443 5.19185 17.7432 5.2005 17.4711 5.25808Z" fill="black" stroke="white" stroke-width="0.1"/>
</svg>
